<mxfile host="app.diagrams.net" modified="2023-07-21T03:17:29.215Z" agent="Mozilla/5.0 (Windows NT 10.0; Win64; x64) AppleWebKit/537.36 (KHTML, like Gecko) Chrome/114.0.0.0 Safari/537.36" version="21.6.5" etag="B7rU8K9sBBIe8WxGqfSf" type="github">
  <diagram name="第 1 页" id="DcXFm71mx7ShHrf0dcc2">
    <mxGraphModel>
      <root>
        <mxCell id="0" />
        <mxCell id="1" parent="0" />
      </root>
    </mxGraphModel>
  </diagram>
</mxfile>
